# xmcd
# 
# Track frame offsets:
#     151
#     18173
#     50232
#     55292
#     81211
#     109184
#     146803
#     165222
#     179704
#     198514
#     223772
#     240266
#     251841
#     267811
#     289580
#     304334
#     318227
#     331812
# 
# Disc length: 4605
# 
# Revision: 0
# Processed by: cddbd v1.5.2PL0 Copyright (c) Steve Scherf et al.
# Submitted via: fre:ac v1.0.31
# 
DISCID=0911fb12
DTITLE=Cozy Powell - Killer
DYEAR=1980
DGENRE=Hard Rock
TTITLE0=Theme 1
TTITLE1=Sweet Position
TTITLE2=Member Introduction
TTITLE3=The Loner
TTITLE4=Tickets To Waterfalls
TTITLE5=Killer
TTITLE6=Rattler's Revenge (Up On The Downs)
TTITLE7=633 Squadron (With Cozy)
TTITLE8=633 Squadron (Orchestra Rehearsing)
TTITLE9=Octopuss (Bass and Drum Machine)
TTITLE10=Big Country (Orchestra Rehearsing)
TTITLE11=Big Country (With Cozy)
TTITLE12=Formula One (Backing Track)
TTITLE13=Princetown
TTITLE14=The Rattler (Version 1)
TTITLE15=The Rattler (Version 2)
TTITLE16=The Rattler (Version 3)
TTITLE17=The Rattler (Version 4)
EXTD=
EXTT0=
EXTT1=
EXTT2=
EXTT3=
EXTT4=
EXTT5=
EXTT6=
EXTT7=
EXTT8=
EXTT9=
EXTT10=
EXTT11=
EXTT12=
EXTT13=
EXTT14=
EXTT15=
EXTT16=
EXTT17=
PLAYORDER=
